 REM CD-DA
	FILE "cs (0,1).bin" BINARY
		TRACK 01 AUDIO
			INDEX 01 00:00:00
		TRACK 02 AUDIO
			INDEX 01 00:01:00
		TRACK 02 AUDIO
			INDEX 01 00:02:00
